:SAMPLES-PER-SECOND 30
:FULLY-SPECIFIED
:DEGREES
151
root  35.04331093 36.44308856 -14.79091644 12.53422451 14.90628242 5.974514484
lowerback  -8.975689888 3.766750336 4.002290249
upperback  -4.336909771 4.373919964 -5.126920223
thorax  1.214840055 1.938570023 -7.177080154
lowerneck  -14.82110023 -6.875919819 -2.840579987
upperneck  11.86299992 -10.17339993 8.065449715
head  6.619390011 -4.50026989 1.979069948
lclavicle  0 -4.497500157e-015 -2.743230041e-014
lhumerus  -43.42419815 29.59720039 65.51679993
lradius  -0.1114584804 -6.507048965e-006 24.67480278
lwrist  4.824992743e-007 -3.790274832e-007 -37.68130112
lhand  -0 -37.3423996 -10.82909966
lfingers  90 7.125020027 -90
lthumb  95.05768548 -25.64579509 101.5569128
rclavicle  0 -4.497500157e-015 -2.743230041e-014
rhumerus  68.59780121 -12.72559929 -57.6405983
rradius  -5.16745672e-007 2.214343908e-008 35.11119843
rwrist  1.380293725e-006 2.528095422e-007 -152.5209961
rhand  -1.773899217e-031 5.55700016 -6.874619961
rfingers  -90 -7.125020027 -90
rthumb  -84.45481231 -9.1713312 -58.65379565
rfemur  -15.00797272 9.216899872 13.9942379
rtibia  -4.084076405 1.569659591 25.57549477
rfoot  -3.660573006 -13.85318375 -45.86738205
rtoes  3.990627032 19.61382367 -101.7403671
lfemur  -13.17866421 -24.73751259 -19.48853874
ltibia  3.567671776 2.524478197 14.85302067
lfoot  1.028631449 -30.09490395 28.47521782
ltoes  -8.618808588 -18.11662437 -115.9866097
152
root  35.04562078 36.4430405 -14.79273668 12.54619598 14.86229324 5.985192776
lowerback  -8.980649948 3.752799988 3.986679792
upperback  -4.326010227 4.357890129 -5.09995985
thorax  1.223320007 1.93208003 -7.140550137
lowerneck  -14.83349991 -6.862030029 -2.862190008
upperneck  11.91429996 -10.14869976 8.039139748
head  6.636030197 -4.489009857 1.976019979
lclavicle  0 -4.497500157e-015 -2.743230041e-014
lhumerus  -43.4571991 29.73060226 65.45159912
lradius  -0.1116179973 -6.507048965e-006 24.62449837
lwrist  4.824992743e-007 -3.790274832e-007 -37.80780029
lhand  -4.444038413e-031 -37.38479996 -10.8295002
lfingers  90 7.125020027 -90
lthumb  95.07773087 -25.64454171 101.6022255
rclavicle  0 -4.497500157e-015 -2.743230041e-014
rhumerus  68.44609833 -12.62799931 -57.26819992
rradius  -5.16745672e-007 2.214343908e-008 35.26539993
rwrist  1.380293725e-006 2.528095422e-007 -152.7669983
rhand  -1.773641251e-031 5.470680237 -7.113200188
rfingers  -90 -7.125020027 -90
rthumb  -84.60154391 -8.962046803 -58.75782
rfemur  -15.05414581 9.381220818 13.96737671
rtibia  -4.102235317 1.610228777 25.62501526
rfoot  -3.685114145 -13.74308014 -45.95848465
rtoes  3.988671861 19.61420632 -101.7345426
lfemur  -13.16176891 -24.69306183 -19.51030731
ltibia  3.584066391 2.54393959 14.80774593
lfoot  1.053111672 -30.11440277 28.53263664
ltoes  -8.629093344 -18.11185611 -116.019689
153
root  35.04801172 36.4427161 -14.79515166 12.54285908 14.81489468 5.987878323
lowerback  -8.982870102 3.745379925 3.963219881
upperback  -4.324009895 4.349609852 -5.091869831
thorax  1.223099947 1.928189993 -7.11920023
lowerneck  -14.86279964 -6.847650051 -2.869940042
upperneck  11.9758997 -10.13189983 8.032540321
head  6.65982008 -4.479159832 1.975430012
lclavicle  0 -4.497500157e-015 -2.743230041e-014
lhumerus  -43.49530029 29.81830215 65.36859894
lradius  -0.111774601 -6.507048965e-006 24.60029984
lwrist  4.824992743e-007 -3.790274832e-007 -38.00230026
lhand  -0 -37.32419968 -10.84549999
lfingers  90 7.125020027 -90
lthumb  95.05268538 -25.66243413 101.5389446
rclavicle  0 -4.497500157e-015 -2.743230041e-014
rhumerus  68.36299896 -12.625 -57.14970016
rradius  -5.16745672e-007 2.214343908e-008 35.32929993
rwrist  1.380293725e-006 2.528095422e-007 -152.9219971
rhand  -1.774356042e-031 5.706610203 -6.996210098
rfingers  -90 -7.125020027 -90
rthumb  -84.48185154 -9.077020123 -58.51794421
rfemur  -15.05339336 9.257696152 13.95135117
rtibia  -4.097118855 1.524667025 25.60603142
rfoot  -3.684082747 -13.90959358 -45.86191559
rtoes  4.001042536 19.61178188 -101.7713968
lfemur  -13.15047836 -24.64995193 -19.52840996
ltibia  3.586531639 2.546598673 14.80024338
lfoot  1.055353165 -30.12379074 28.53881264
ltoes  -8.637241411 -18.10807341 -116.0459019
154
root  35.05024647 36.44243075 -14.79748703 12.53373051 14.76949024 5.98696804
lowerback  -8.997159958 3.745630026 3.951030016
upperback  -4.322679996 4.350090027 -5.08976841
thorax  1.223110199 1.928539991 -7.110199928
lowerneck  -14.74750042 -6.859710217 -2.923209906
upperneck  11.88809967 -10.14439964 8.10503006
head  6.619689941 -4.48830986 2.009740114
lclavicle  0 -4.497500157e-015 -2.743230041e-014
lhumerus  -43.49039841 29.79240036 65.37180328
lradius  -0.1119282991 -6.507048965e-006 24.58939934
lwrist  4.824992743e-007 -3.790274832e-007 -37.99169922
lhand  -0 -37.36460114 -10.84029961
lfingers  90 7.125020027 -90
lthumb  95.07065872 -25.65595662 101.5817448
rclavicle  0 -4.497500157e-015 -2.743230041e-014
rhumerus  68.27390289 -12.57759857 -57.07509995
rradius  -5.16745672e-007 2.214343908e-008 35.43450165
rwrist  1.380293725e-006 2.528095422e-007 -152.8939972
rhand  -0 5.781700134 -7.002190113
rfingers  -90 -7.125020027 -90
rthumb  -84.46638851 -9.07669101 -58.44512999
rfemur  -15.06374741 9.37191391 13.93453884
rtibia  -4.101402283 1.552348256 25.62328529
rfoot  -3.685171366 -13.84164047 -45.89985275
rtoes  4.000438131 19.61190051 -101.7695961
lfemur  -13.16340446 -24.66883659 -19.53819466
ltibia  3.572117329 2.512313366 14.84105015
lfoot  1.050238848 -30.07483292 28.55972481
ltoes  -8.603924867 -18.12351224 -115.9387535
